<mxfile host="65bd71144e">
    <diagram id="t8SuZVV4dtWOUq15USrl" name="Page-1">
        <mxGraphModel dx="1011" dy="741" grid="1" gridSize="10" guides="1" tooltips="1" connect="1" arrows="1" fold="1" page="1" pageScale="1" pageWidth="850" pageHeight="1100" math="0" shadow="0">
            <root>
                <mxCell id="0"/>
                <mxCell id="1" parent="0"/>
                <mxCell id="3" value="ONLINE BOOKSTORE MANAGEMENT SYSTEM" style="swimlane;whiteSpace=wrap;html=1;" parent="1" vertex="1">
                    <mxGeometry x="225" y="315" width="400" height="470" as="geometry">
                        <mxRectangle x="225" y="315" width="310" height="30" as="alternateBounds"/>
                    </mxGeometry>
                </mxCell>
                <mxCell id="6" value="Login / Register" style="ellipse;whiteSpace=wrap;html=1;" parent="3" vertex="1">
                    <mxGeometry x="15" y="45" width="120" height="40" as="geometry"/>
                </mxCell>
                <mxCell id="7" value="Generate error message" style="ellipse;whiteSpace=wrap;html=1;" parent="3" vertex="1">
                    <mxGeometry x="255" y="45" width="120" height="40" as="geometry"/>
                </mxCell>
                <mxCell id="8" value="&amp;lt;&amp;lt;include&amp;gt;&amp;gt;" style="html=1;verticalAlign=bottom;labelBackgroundColor=none;endArrow=open;endFill=0;dashed=1;exitX=0;exitY=0.5;exitDx=0;exitDy=0;entryX=1;entryY=0.5;entryDx=0;entryDy=0;" parent="3" source="7" target="6" edge="1">
                    <mxGeometry width="160" relative="1" as="geometry">
                        <mxPoint x="135" y="185" as="sourcePoint"/>
                        <mxPoint x="295" y="185" as="targetPoint"/>
                    </mxGeometry>
                </mxCell>
                <mxCell id="9" value="Verify Login" style="ellipse;whiteSpace=wrap;html=1;" parent="3" vertex="1">
                    <mxGeometry x="255" y="125" width="120" height="45" as="geometry"/>
                </mxCell>
                <mxCell id="10" value="&amp;lt;&amp;lt;extend&amp;gt;&amp;gt;" style="html=1;verticalAlign=bottom;labelBackgroundColor=none;endArrow=open;endFill=0;dashed=1;exitX=1;exitY=0.5;exitDx=0;exitDy=0;entryX=0;entryY=0.5;entryDx=0;entryDy=0;" parent="3" source="6" target="9" edge="1">
                    <mxGeometry width="160" relative="1" as="geometry">
                        <mxPoint x="135" y="185" as="sourcePoint"/>
                        <mxPoint x="245" y="155" as="targetPoint"/>
                    </mxGeometry>
                </mxCell>
                <mxCell id="11" value="Add book to cart" style="ellipse;whiteSpace=wrap;html=1;" parent="3" vertex="1">
                    <mxGeometry x="80" y="135" width="120" height="45" as="geometry"/>
                </mxCell>
                <mxCell id="19" value="Remove book from cart / Empty cart" style="ellipse;whiteSpace=wrap;html=1;" parent="3" vertex="1">
                    <mxGeometry x="80" y="190" width="120" height="45" as="geometry"/>
                </mxCell>
                <mxCell id="20" value="Proceed to Placing order" style="ellipse;whiteSpace=wrap;html=1;" parent="3" vertex="1">
                    <mxGeometry x="80" y="265" width="120" height="45" as="geometry"/>
                </mxCell>
                <mxCell id="21" value="" style="endArrow=classic;html=1;entryX=0;entryY=0.5;entryDx=0;entryDy=0;" parent="3" target="11" edge="1">
                    <mxGeometry width="50" height="50" relative="1" as="geometry">
                        <mxPoint x="-115" y="125" as="sourcePoint"/>
                        <mxPoint x="215" y="265" as="targetPoint"/>
                    </mxGeometry>
                </mxCell>
                <mxCell id="36" value="Proceed to payment" style="ellipse;whiteSpace=wrap;html=1;" parent="3" vertex="1">
                    <mxGeometry x="225" y="190" width="120" height="45" as="geometry"/>
                </mxCell>
                <mxCell id="47" value="Proceed to delivery" style="ellipse;whiteSpace=wrap;html=1;" parent="3" vertex="1">
                    <mxGeometry x="265" y="335" width="120" height="45" as="geometry"/>
                </mxCell>
                <mxCell id="50" value="&amp;lt;&amp;lt;extend&amp;gt;&amp;gt;" style="html=1;verticalAlign=bottom;labelBackgroundColor=none;endArrow=open;endFill=0;dashed=1;exitX=1;exitY=0.5;exitDx=0;exitDy=0;entryX=0.5;entryY=1;entryDx=0;entryDy=0;" parent="3" source="20" target="36" edge="1">
                    <mxGeometry width="160" relative="1" as="geometry">
                        <mxPoint x="155" y="305" as="sourcePoint"/>
                        <mxPoint x="315" y="305" as="targetPoint"/>
                    </mxGeometry>
                </mxCell>
                <mxCell id="51" value="Verify user details (all details including delivery info...)" style="ellipse;whiteSpace=wrap;html=1;" parent="3" vertex="1">
                    <mxGeometry x="210" y="275" width="180" height="50" as="geometry"/>
                </mxCell>
                <mxCell id="53" value="Modify books (Includes all other managements ...)" style="ellipse;whiteSpace=wrap;html=1;" parent="3" vertex="1">
                    <mxGeometry x="90" y="375" width="155" height="65" as="geometry"/>
                </mxCell>
                <mxCell id="4" value="Customer" style="shape=umlActor;verticalLabelPosition=bottom;verticalAlign=top;html=1;outlineConnect=0;" parent="1" vertex="1">
                    <mxGeometry x="80" y="420" width="30" height="60" as="geometry"/>
                </mxCell>
                <mxCell id="48" style="edgeStyle=none;html=1;exitX=1;exitY=0.3333333333333333;exitDx=0;exitDy=0;exitPerimeter=0;entryX=0;entryY=0.5;entryDx=0;entryDy=0;" parent="1" source="5" target="47" edge="1">
                    <mxGeometry relative="1" as="geometry"/>
                </mxCell>
                <mxCell id="52" style="edgeStyle=none;html=1;exitX=1;exitY=0.3333333333333333;exitDx=0;exitDy=0;exitPerimeter=0;entryX=0;entryY=1;entryDx=0;entryDy=0;" parent="1" source="5" target="51" edge="1">
                    <mxGeometry relative="1" as="geometry">
                        <Array as="points"/>
                    </mxGeometry>
                </mxCell>
                <mxCell id="54" style="edgeStyle=none;html=1;exitX=1;exitY=0.3333333333333333;exitDx=0;exitDy=0;exitPerimeter=0;entryX=0;entryY=0.5;entryDx=0;entryDy=0;" parent="1" source="5" target="53" edge="1">
                    <mxGeometry relative="1" as="geometry"/>
                </mxCell>
                <mxCell id="5" value="Admin" style="shape=umlActor;verticalLabelPosition=bottom;verticalAlign=top;html=1;outlineConnect=0;" parent="1" vertex="1">
                    <mxGeometry x="80" y="650" width="30" height="60" as="geometry"/>
                </mxCell>
                <mxCell id="22" value="" style="endArrow=classic;html=1;entryX=0;entryY=0.5;entryDx=0;entryDy=0;" parent="1" target="6" edge="1">
                    <mxGeometry width="50" height="50" relative="1" as="geometry">
                        <mxPoint x="110" y="440" as="sourcePoint"/>
                        <mxPoint x="180" y="380" as="targetPoint"/>
                    </mxGeometry>
                </mxCell>
                <mxCell id="23" value="" style="endArrow=classic;html=1;entryX=0;entryY=0.5;entryDx=0;entryDy=0;" parent="1" target="19" edge="1">
                    <mxGeometry width="50" height="50" relative="1" as="geometry">
                        <mxPoint x="110" y="440" as="sourcePoint"/>
                        <mxPoint x="160" y="390" as="targetPoint"/>
                    </mxGeometry>
                </mxCell>
                <mxCell id="24" value="" style="endArrow=classic;html=1;entryX=0;entryY=0.5;entryDx=0;entryDy=0;" parent="1" target="20" edge="1">
                    <mxGeometry width="50" height="50" relative="1" as="geometry">
                        <mxPoint x="110" y="440" as="sourcePoint"/>
                        <mxPoint x="440" y="580" as="targetPoint"/>
                    </mxGeometry>
                </mxCell>
                <mxCell id="38" value="Old" style="shape=umlActor;verticalLabelPosition=bottom;verticalAlign=top;html=1;outlineConnect=0;" parent="1" vertex="1">
                    <mxGeometry x="40" y="550" width="20" height="30" as="geometry"/>
                </mxCell>
                <mxCell id="39" value="New" style="shape=umlActor;verticalLabelPosition=bottom;verticalAlign=top;html=1;outlineConnect=0;" parent="1" vertex="1">
                    <mxGeometry x="120" y="550" width="20" height="30" as="geometry"/>
                </mxCell>
                <mxCell id="42" value="" style="endArrow=classic;html=1;entryX=0.5;entryY=0;entryDx=0;entryDy=0;entryPerimeter=0;" parent="1" target="39" edge="1">
                    <mxGeometry width="50" height="50" relative="1" as="geometry">
                        <mxPoint x="90" y="500" as="sourcePoint"/>
                        <mxPoint x="130" y="510" as="targetPoint"/>
                    </mxGeometry>
                </mxCell>
                <mxCell id="43" value="" style="endArrow=classic;html=1;entryX=0.5;entryY=0;entryDx=0;entryDy=0;entryPerimeter=0;" parent="1" target="38" edge="1">
                    <mxGeometry width="50" height="50" relative="1" as="geometry">
                        <mxPoint x="90" y="500" as="sourcePoint"/>
                        <mxPoint x="140" y="560" as="targetPoint"/>
                    </mxGeometry>
                </mxCell>
            </root>
        </mxGraphModel>
    </diagram>
</mxfile>